# xmcd
#
# Track frame offsets:
#	150
#	22824
#	42626
#	53897
#	67198
#	81159
#	96145
#	107849
#	121097
#	131316
#	135667
#	147313
#	167344
#	182365
#	196091
#
# Disc length: 2810
#
# Revision: 1
# Processed by: cddbd v1.5.1PL0 Copyright (c) Steve Scherf et al.
# Submitted via: WhereIsIt 3.23
# Normalized: r0:DSETVAR1
#
DISCID=c50af80f
DTITLE=Various Artist - Blues Story - Vol. 27 - Zydeco and Delta Blues
DYEAR=1900
DGENRE=
TTITLE0=Dr John - I Know What I've Got
TTITLE1=Professor Longhair - Her Mind Is Gone
TTITLE2=Elmore James - Shake Your Moneymaker
TTITLE3=Mississippi John Hurt - Slidin' Delta
TTITLE4=Koko Taylor - Mama, He Treats Your Daughter Mean
TTITLE5=Katie Webster - Whoo-Wee Sweet Daddy
TTITLE6=Sonny Boy Williamson - Bring It On Home
TTITLE7=Skip James - I'm So Glad
TTITLE8=J.B. Hutto - Combination Boogie
TTITLE9=Leadbelly - Black Betty
TTITLE10=John Lee Hooker - Walkin' The Boogie
TTITLE11=Johnny Adams - Do You Know Him
TTITLE12=C.J. Chenier - Too Much Fun
TTITLE13=Buckwheat Zydeco - Route 66
TTITLE14=Kenny Neal - Bayou Blood
EXTD=
EXTT0=
EXTT1=
EXTT2=
EXTT3=
EXTT4=
EXTT5=
EXTT6=
EXTT7=
EXTT8=
EXTT9=
EXTT10=
EXTT11=
EXTT12=
EXTT13=
EXTT14=
PLAYORDER=
